<svg width="96" height="96" viewBox="0 0 96 96" fill="none" xmlns="http://www.w3.org/2000/svg">
<path d="M0 14.4927C0 9.17201 4.16636 4.783 9.47987 4.50626L87.0642 0.465408C91.8293 0.217224 95.7508 4.16891 95.466 8.93199L90.984 83.904C90.7089 88.505 87.0022 92.1546 82.3974 92.3581L4.17663 95.8154C1.90039 95.916 0 94.0978 0 91.8193V14.4927Z" fill="#C70036"/>
<path d="M73.8636 48.6455C76.0081 49.8815 75.8176 53.0364 73.5399 54.0053L28.931 72.9818C26.7733 73.8996 24.444 72.0985 24.7894 69.7792L30.9187 28.6256C31.2303 26.5333 33.5512 25.412 35.3839 26.4683L73.8636 48.6455Z" fill="#D9D9D9"/>
</svg>
